<svg width="64" height="40" viewBox="0 0 64 40" fill="none" xmlns="http://www.w3.org/2000/svg">
<circle opacity="0.201403" cx="20" cy="20" r="20" fill="black"/>
<path fill-rule="evenodd" clip-rule="evenodd" d="M45.4749 13.6937C48.774 13.6928 48.9453 13.6927 49.1158 13.7043L49.1443 13.7063C49.1719 13.7082 49.2036 13.7105 49.2506 13.7131L48.6197 12.1343C47.6352 9.67065 45.2862 8.07874 42.6354 8.07874H38.5274L40.2105 13.6945C42.5241 13.6945 44.2209 13.694 45.4699 13.6937H45.4719L45.4749 13.6937ZM27.882 13.6945L29.0042 8.07882H23.4388C22.875 8.07882 22.3767 8.44562 22.2085 8.98428C21.624 10.8566 21.1969 12.2239 20.8847 13.2234L20.8846 13.2236L20.7375 13.6946H27.882V13.6945ZM35.8358 8.07882L37.5188 13.6945H30.5113L31.6332 8.07882H35.8358ZM27.6498 20.5828V16.275H20.0038C19.9992 16.5962 19.9995 17.3776 20.0003 19.3813L20.0005 19.7777H21.4624C22.1743 19.7777 22.7514 20.3554 22.7514 21.068C22.7514 21.7806 22.1743 22.3583 21.4624 22.3583H20.0013L20.0014 23.9927C20.0014 26.0515 21.6154 27.7394 23.6434 27.8566C23.3609 24.7743 25.005 21.9355 27.6498 20.5828ZM61.2528 21.0056C61.2179 21.7466 61.8078 22.3583 62.5404 22.3583H63.9858C63.8223 24.5831 62.416 26.551 60.3861 27.4081C60.5162 23.1965 57.1305 19.7777 53.0013 19.7777C48.6852 19.7777 45.2396 23.4959 45.6438 27.8637H38.3588C38.7895 23.2086 34.8559 19.3328 30.2278 19.8181V16.275H37.9622V17.7374C37.9622 18.4707 38.5733 19.0612 39.3136 19.0263C40.0069 18.9936 40.5403 18.3957 40.5403 17.7009V16.275H48.841L61.8973 16.9912C62.4391 17.0209 62.9044 17.3876 63.0611 17.9076L63.2565 18.556L63.2577 18.5598C63.4206 19.1 63.538 19.4894 63.6239 19.7777H62.5768C61.8827 19.7777 61.2855 20.3116 61.2528 21.0056ZM52.2993 31.9409C54.4621 32.2587 56.5448 31.0809 57.4113 29.1015C58.8002 25.9247 56.459 22.3583 53.0014 22.3583C50.0862 22.3583 47.8205 24.9486 48.2389 27.8637C48.539 29.9534 50.1921 31.6316 52.2993 31.9409ZM26.2388 27.8637C25.8193 24.9402 28.0956 22.3583 31.0013 22.3583C33.9188 22.3583 36.1819 24.9509 35.764 27.8636C35.5229 29.5414 34.4017 30.9926 32.8017 31.6417C30.9653 32.3866 28.8646 31.9242 27.5016 30.4769C26.4849 29.3973 26.3038 28.2505 26.2553 27.9432C26.2472 27.8916 26.2428 27.8637 26.2388 27.8637Z" fill="#26B5C0"/>
</svg>
