<svg width="64" height="40" viewBox="0 0 64 40" fill="none" xmlns="http://www.w3.org/2000/svg">
<circle opacity="0.201403" cx="20" cy="20" r="20" fill="black"/>
<path fill-rule="evenodd" clip-rule="evenodd" d="M63.291 19.9223C59.027 17.3112 53.7712 16.054 49.3273 16.1691L45.612 12.3841C45.1097 11.8723 44.295 11.8723 43.7926 12.3841C43.2901 12.896 43.2901 13.7258 43.7926 14.2377L46.7769 17.278C45.0004 18.2732 43.2098 18.6581 41.5298 18.6815C40.8104 20.0909 40.2758 21.1368 39.8664 21.9379C39.0195 23.5948 38.7079 24.2046 38.4025 24.8176C38.2246 25.1747 38.0489 25.5328 37.7708 26.0995C37.6238 26.3991 37.4482 26.7571 37.2284 27.2041H46.8972C46.4322 23.4777 49.2901 20.2138 52.9363 20.2138C56.5306 20.2138 59.3859 23.3978 58.9887 27.0966C61.789 26.5603 63.9148 24.0519 63.9148 21.0456C63.9147 20.5857 63.678 20.1593 63.291 19.9223ZM36.258 23.3282C35.1877 21.4373 33.1982 20.2138 30.9791 20.2138C27.3843 20.2138 24.5287 23.3984 24.9268 27.0986C23.095 26.7516 21.5126 25.5622 20.6485 23.8225C20.4281 23.3786 20.4735 22.8455 20.7657 22.4468L21.7205 21.1439L20.3962 19.8486C19.645 19.1141 20.0197 17.8245 21.0351 17.6179L23.8903 17.0366L23.8904 17.0365L23.8907 17.0365C26.5277 16.4996 27.8678 16.2267 27.9368 16.2147C28.2506 16.0692 29.0064 15.6239 29.0064 14.7089C29.0064 13.9749 29.5988 13.3817 30.3231 13.3986C31.0353 13.4153 31.591 14.0611 31.5788 14.7868C31.5685 15.3974 31.4373 15.9327 31.2311 16.3981C32.8363 16.6121 34.4076 16.9949 35.9301 17.5435L35.2318 15.0711C35.0355 14.3755 35.4299 13.6494 36.1127 13.4493C36.7958 13.2491 37.5084 13.651 37.7048 14.3468L38.4538 16.9987C38.6906 17.8372 38.602 18.7355 38.2069 19.5095C38.2138 19.4961 37.275 21.3344 36.258 23.3282ZM30.9791 30.0002C32.9212 30.0002 34.4956 28.3962 34.4956 26.4177C34.4956 24.4391 32.9212 22.8352 30.9791 22.8352C29.0369 22.8352 27.4625 24.4391 27.4625 26.4177C27.4625 28.3962 29.0369 30.0002 30.9791 30.0002ZM52.9362 30.0002C54.8783 30.0002 56.4528 28.3962 56.4528 26.4177C56.4528 24.4391 54.8783 22.8352 52.9362 22.8352C50.994 22.8352 49.4196 24.4391 49.4196 26.4177C49.4196 28.3962 50.994 30.0002 52.9362 30.0002Z" fill="#19B89D"/>
</svg>
